<svg width="256" height="256" viewBox="0 0 256 256" fill="none" xmlns="http://www.w3.org/2000/svg">
<path d="M128.001 9.59949C193.29 9.59949 246.398 62.715 246.398 128.001C246.398 139.757 244.657 151.11 241.446 161.845L131.267 51.6684C129.398 49.7895 126.359 49.7895 124.482 51.6684L14.503 161.643C11.3313 150.972 9.60193 139.689 9.60193 128.001C9.60193 62.715 62.7175 9.59949 128.001 9.59949Z" fill="#F7BB5D"/>
<path d="M128.001 9.59949C125.599 9.59949 123.228 9.69838 120.864 9.84068C182.836 13.5406 232.134 65.1125 232.134 128.001C232.134 135.64 231.333 143.085 229.929 150.321L241.446 161.845C244.657 151.11 246.398 139.757 246.398 128.001C246.398 62.715 193.29 9.59949 128.001 9.59949Z" fill="#E5A341"/>
<path d="M128.001 246.4C78.1538 246.4 35.4313 215.419 18.0027 171.717L85.5151 104.205L90.9901 135.254C91.3302 137.273 92.9052 138.852 94.924 139.205C95.1893 139.253 95.4619 139.267 95.732 139.267C97.4613 139.267 99.0798 138.336 99.9384 136.788L115.153 109.152L124.019 122.35C124.957 123.756 126.556 124.564 128.242 124.47C129.921 124.388 131.441 123.426 132.237 121.942L138.819 109.613L148.946 126.24C149.889 127.796 151.619 128.677 153.452 128.525C155.268 128.368 156.843 127.203 157.516 125.505L167.118 101.086L237.927 171.898C220.453 215.506 177.781 246.4 128.001 246.4Z" fill="#CABAA0"/>
<path d="M140.153 234.254C90.3052 234.254 47.585 203.275 30.154 159.569L18.0027 171.718C35.4313 215.419 78.1538 246.401 128.001 246.401C163.722 246.401 195.719 230.446 217.433 205.349C196.681 223.314 169.699 234.254 140.153 234.254Z" fill="#B9A27F"/>
<path d="M131.267 51.6684C129.398 49.7895 126.359 49.7895 124.482 51.6684L14.5029 161.643C11.3313 150.972 9.6019 139.689 9.6019 128.001C9.6019 62.7175 62.7175 9.59949 128.001 9.59949C193.29 9.59949 246.398 62.7175 246.398 128.001C246.398 139.757 244.657 151.11 241.446 161.845L131.267 51.6684ZM93.8 95.9201L127.878 61.8443L159.713 93.6794L152.125 113.004L142.646 97.4396C141.752 95.9708 140.14 95.0856 138.411 95.1411C136.689 95.1893 135.126 96.1541 134.311 97.6736L127.531 110.372L118.727 97.2635C117.801 95.8743 116.178 95.0566 114.535 95.1411C112.862 95.2158 111.354 96.1541 110.539 97.6205L98.209 120.03L93.8 95.9201ZM128.001 246.401C78.1538 246.401 35.4313 215.419 18.0027 171.717L85.515 104.205L90.9901 135.254C91.3302 137.275 92.9052 138.852 94.924 139.205C95.1965 139.253 95.4618 139.267 95.732 139.267C97.4613 139.267 99.0797 138.336 99.9384 136.788L115.153 109.152L124.019 122.35C124.957 123.756 126.556 124.564 128.242 124.473C129.928 124.388 131.441 123.426 132.237 121.942L138.819 109.613L148.946 126.24C149.889 127.796 151.619 128.677 153.452 128.525C155.268 128.368 156.843 127.203 157.516 125.505L167.118 101.086L237.927 171.898C220.453 215.506 177.781 246.401 128.001 246.401ZM128.001 0C57.4209 0 0 57.4184 0 128.001C0 198.582 57.4209 256 128.001 256C198.577 256 256 198.582 256 128.001C256 57.4184 198.577 0 128.001 0Z" fill="#422A1A"/>
</svg>
